<svg xmlns="http://www.w3.org/2000/svg" width="512" height="512" viewBox="0 0 512 512" version="1.1"><path d="M 282.118 114.500 C 281.973 117.902, 287.828 142.994, 291.102 153 C 294.885 164.562, 300.625 178.268, 307.071 191.130 C 309.726 196.427, 312.794 203.420, 313.889 206.671 C 314.984 209.922, 319.067 220.633, 322.962 230.474 C 335.464 262.062, 340.003 278.405, 341.536 297.344 L 342.252 306.188 330.876 294.840 C 324.619 288.598, 316.377 281.162, 312.560 278.315 C 293.057 263.770, 270.665 255.295, 247.315 253.623 L 239.500 253.063 244.500 254.568 C 270.635 262.434, 284.488 268.279, 298.222 277.236 C 328.320 296.866, 342.530 325.170, 338.943 358.349 C 336.188 383.824, 323.754 409.596, 304.411 429.923 C 294.729 440.097, 288.622 445.015, 276.991 452.005 C 269.326 456.612, 268.934 457, 271.943 457 C 277.007 457, 292.019 451.564, 300.103 446.803 C 315.342 437.829, 332.431 417.532, 342.617 396.309 C 357.969 364.322, 362.527 331.393, 358.507 281.500 C 354.434 230.948, 358.248 213.152, 379.825 182.046 C 385.567 173.767, 385.984 172.875, 383.178 174.873 C 381.416 176.128, 376.919 180.621, 373.186 184.858 C 354.389 206.189, 350.745 216.976, 348.397 258.250 C 348.029 264.712, 347.431 270, 347.068 270 C 346.332 270, 343.430 263.335, 332.047 235.500 C 327.774 225.050, 320.387 208.736, 315.631 199.246 C 300.604 169.259, 295.994 157.539, 284.653 120.500 C 283.306 116.100, 282.165 113.400, 282.118 114.500 M 223.086 144.515 C 210.857 152.054, 184.995 170.391, 111 223.986 C 83.225 244.104, 56.450 263.434, 51.500 266.942 C 36.516 277.560, 31.820 282.927, 33.981 286.965 C 35.981 290.701, 41.140 291.283, 76.343 291.741 L 110.186 292.182 109.555 294.341 C 107.536 301.256, 102.876 323.005, 101.487 332 C 99.310 346.101, 98.452 376.810, 99.874 389.795 C 102.010 409.304, 106.227 425.757, 113.190 441.750 L 117.218 451 121.359 450.989 C 128.984 450.969, 133.217 449.884, 132.610 448.106 C 115.438 397.742, 114.716 345.481, 130.335 283.267 L 133.657 270.034 108.635 269.767 L 83.613 269.500 101.056 254.444 C 110.650 246.164, 134.925 225.717, 155 209.007 C 195.993 174.885, 208.356 164.364, 221.783 152.173 C 235.921 139.337, 236.441 136.281, 223.086 144.515 M 177 328 L 177 345 193 345 L 209 345 209 328 L 209 311 193 311 L 177 311 177 328 M 217 327.930 L 217 345 233.500 345 L 250 345 249.985 329.750 C 249.976 321.363, 249.544 313.825, 249.023 313 C 248.263 311.796, 245.013 311.437, 232.538 311.180 L 217 310.859 217 327.930 M 177 370 L 177 387 193 387 L 209 387 209 370 L 209 353 193 353 L 177 353 177 370 M 217 370.025 L 217 387.050 233.250 386.775 L 249.500 386.500 249.774 369.750 L 250.048 353 233.524 353 L 217 353 217 370.025" stroke="none" fill="#5b2c24" fill-rule="evenodd"/><path d="M 282.716 35.191 C 275.556 39.076, 265.517 49.554, 260.149 58.746 C 249.078 77.702, 243.018 102.423, 243.006 128.678 C 242.998 145.254, 244.330 155.019, 248.193 166.727 C 252.196 178.860, 258.684 188.568, 269.955 199.295 C 280.779 209.595, 292.430 216.039, 301.603 216.800 L 307.186 217.263 303.709 212.382 C 292.034 195.991, 280.253 160.411, 279.412 139 L 278.999 128.500 281.151 133 C 282.334 135.475, 287.232 148.525, 292.034 162 C 305.740 200.462, 310.003 210.177, 313.467 210.849 C 316.163 211.372, 315.008 207.906, 306.518 190 C 294.041 163.686, 289.898 152.129, 285.013 130 C 279.856 106.638, 281.229 108.194, 288.983 134.500 C 291.253 142.200, 295.162 153.675, 297.670 160 C 303.204 173.956, 317.005 203, 318.102 203 C 319.256 203, 326.147 181.232, 331.493 160.701 C 335.329 145.968, 336.227 140.789, 336.707 130.642 C 337.643 110.823, 333.698 92.120, 325.704 78.485 C 317.997 65.341, 292.133 31.972, 289.694 32.027 C 289.037 32.041, 285.897 33.465, 282.716 35.191 M 393.814 118.078 C 372.632 121.185, 354.728 130.605, 344.734 143.901 C 341.012 148.853, 339.191 152.832, 335.634 163.795 C 328.464 185.892, 327.499 191.316, 327.506 209.500 L 327.512 225.500 333.954 240.903 L 340.397 256.305 341.716 248.403 C 342.442 244.056, 344.203 236.900, 345.630 232.500 C 348.299 224.266, 357.954 204.941, 363.350 197.030 C 367.722 190.620, 379.417 177.551, 383.178 174.873 C 385.993 172.869, 385.589 173.740, 379.850 182.046 C 371.149 194.638, 371.370 194.190, 374.443 193.022 C 376.488 192.244, 377 192.353, 377 193.565 C 377 195.642, 373.502 202.344, 368.782 209.309 C 366.617 212.504, 363.214 218.554, 361.220 222.753 C 357.660 230.249, 357.586 230.653, 357.193 244.944 C 356.966 253.190, 357.487 268.426, 358.396 280.092 C 360.669 309.276, 360.460 324.759, 357.463 349 C 353.829 378.393, 349.766 392.998, 340.723 409.167 C 329.507 429.223, 314.587 443.781, 281.750 466.708 C 274.188 471.989, 268 476.586, 268 476.925 C 268 477.264, 272.837 477.129, 278.750 476.626 C 295.927 475.165, 388.116 475.287, 405 476.794 C 432.412 479.240, 498.314 487.329, 509.250 489.590 C 510.762 489.903, 512 489.761, 512 489.274 C 512 488.330, 486.417 479.691, 471.500 475.599 C 430.991 464.485, 384.795 457.541, 343.250 456.320 C 331.563 455.977, 322 455.544, 322 455.359 C 322 455.174, 323.970 452.430, 326.378 449.261 C 354.079 412.809, 366.981 374.396, 366.997 328.330 C 367 317.645, 365.322 289.098, 364.464 285.250 C 364.111 283.668, 364.422 283, 365.513 283 C 366.366 283, 370.538 281.660, 374.782 280.021 C 390.887 273.806, 410.611 258.382, 419.413 245.119 C 421.830 241.479, 429.953 227.325, 437.465 213.666 C 459.085 174.358, 465.381 164.917, 474.869 157.578 C 477.966 155.182, 481.596 152.042, 482.935 150.600 L 485.370 147.977 481.935 144.391 C 463.451 125.096, 424.751 113.540, 393.814 118.078 M 235.477 209.926 C 215.676 213.082, 197.763 223.779, 184.421 240.417 C 178.924 247.272, 170.154 261.769, 171.157 262.343 C 171.346 262.451, 174.835 263.639, 178.912 264.981 C 191.395 269.093, 202.202 276.518, 237 304.891 C 240.575 307.806, 244.539 310.682, 245.809 311.282 C 247.078 311.883, 249.589 313.753, 251.388 315.437 C 255.330 319.128, 267.827 326.355, 275.921 329.624 C 279.155 330.930, 289.383 333.315, 298.651 334.922 C 307.918 336.530, 316.253 338.140, 317.172 338.500 C 319.437 339.386, 321.925 345.936, 322.615 352.829 C 324.723 373.889, 305.744 407.362, 281.072 426.098 C 258.440 443.285, 221.445 453.245, 129.065 467.022 C 56.503 477.844, 8.623 485.823, 3 488.031 C 0.013 489.204, -2.446 489.375, 61 483.999 C 139.062 477.383, 178.910 472.958, 218.500 466.505 C 259.127 459.884, 267.940 457.297, 282.076 447.841 C 313.955 426.518, 334.944 379.107, 328.932 342 C 323.539 308.714, 302.452 289.951, 249.578 271.388 L 235.656 266.500 247.578 266.213 C 261.286 265.883, 271.287 267.543, 283.145 272.116 C 292.240 275.624, 306.488 284.386, 315.232 291.850 L 321.500 297.200 314.195 290.042 C 298.530 274.691, 279.966 265.242, 244.500 254.568 L 239.500 253.063 247.315 253.623 C 264.678 254.867, 283.669 260.580, 298.338 268.973 C 305.894 273.296, 314.218 279.429, 324.091 287.946 L 329.245 292.391 328.533 288.946 C 327.177 282.387, 321.095 265.130, 317.917 258.829 C 308.565 240.280, 293.763 224.894, 277.339 216.648 C 266.108 211.009, 247.463 208.015, 235.477 209.926" stroke="none" fill="#30ab34" fill-rule="evenodd"/></svg>